<?xml version="1.0" standalone="no"?>
<!DOCTYPE svg PUBLIC "-//W3C//DTD SVG 20010904//EN"
 "http://www.w3.org/TR/2001/REC-SVG-20010904/DTD/svg10.dtd">
<svg version="1.0" xmlns="http://www.w3.org/2000/svg"
 width="385.000000pt" height="91.000000pt" viewBox="0 0 385.000000 91.000000"
 preserveAspectRatio="xMidYMid meet">
<metadata>
Created by potrace 1.16, written by Peter Selinger 2001-2019
</metadata>
<g transform="translate(0.000000,91.000000) scale(0.100000,-0.100000)"
fill="#000000" stroke="none">
<path d="M430 856 c-127 -64 -219 -120 -326 -197 -105 -76 -112 -84 -89 -109
10 -11 26 -20 35 -20 10 0 121 54 246 120 175 92 235 119 256 116 14 -3 50
-20 80 -39 98 -62 396 -209 419 -205 12 2 27 11 33 21 9 16 5 23 -24 49 -93
79 -481 319 -516 318 -5 0 -56 -24 -114 -54z"/>
<path d="M490 638 c-43 -47 -10 -108 58 -108 47 0 72 24 72 68 0 58 -87 86
-130 40z"/>
<path d="M1477 638 c-23 -17 -27 -25 -22 -52 9 -44 -116 -359 -157 -398 -43
-40 -36 -48 42 -48 39 0 70 4 70 10 0 5 -10 18 -21 29 -21 19 -21 22 -6 58
l15 38 92 0 93 0 16 -43 c15 -41 15 -44 -2 -53 -9 -6 -17 -17 -17 -24 0 -12
17 -15 80 -15 61 0 80 3 80 14 0 7 -9 20 -19 27 -12 8 -58 108 -111 239 -51
124 -95 228 -98 232 -4 4 -19 -3 -35 -14z"/>
<path d="M1930 628 c-31 -16 -51 -35 -64 -61 -39 -80 9 -158 124 -202 97 -37
128 -81 99 -138 -42 -81 -153 -74 -189 13 -9 21 -19 30 -36 30 -23 0 -24 -3
-24 -65 0 -69 15 -90 44 -65 11 8 25 9 53 1 124 -35 222 31 223 149 0 71 -27
105 -118 147 -42 20 -87 45 -99 56 -42 38 -24 99 33 113 37 10 71 -10 91 -53
12 -25 26 -39 41 -41 21 -3 22 0 22 58 0 62 0 62 -26 57 -15 -3 -42 1 -60 9
-45 19 -62 18 -114 -8z"/>
<path d="M2963 643 c-134 -3 -163 -6 -163 -18 0 -8 9 -19 20 -25 19 -10 20
-21 20 -210 0 -189 -1 -200 -20 -210 -11 -6 -20 -17 -20 -25 0 -13 29 -15 180
-15 l180 0 0 71 c0 60 -2 70 -17 67 -9 -2 -22 -19 -28 -38 -15 -46 -45 -60
-127 -60 l-68 0 0 100 0 100 35 0 c26 0 39 -6 51 -25 30 -46 44 -32 44 45 0
56 -3 70 -15 70 -9 0 -19 -8 -22 -17 -9 -25 -23 -33 -60 -33 l-33 0 0 90 0 90
61 0 c72 0 93 -10 107 -50 8 -20 18 -30 31 -30 19 0 21 6 21 65 0 36 -3 64 -7
63 -5 -1 -81 -4 -170 -5z"/>
<path d="M3360 634 c-49 -21 -69 -42 -80 -84 -22 -80 24 -145 132 -186 108
-41 137 -101 79 -163 -52 -56 -140 -36 -171 39 -8 18 -20 30 -31 30 -17 0 -19
-8 -19 -70 0 -70 10 -86 37 -59 7 7 24 6 57 -2 122 -31 216 35 216 151 0 74
-38 120 -131 156 -106 41 -139 99 -83 143 50 40 94 24 125 -44 9 -18 23 -31
37 -33 21 -3 22 0 22 58 0 62 0 62 -26 57 -15 -3 -42 1 -60 9 -42 17 -60 17
-104 -2z"/>
<path d="M2270 625 c0 -9 7 -18 15 -21 13 -5 15 -38 15 -214 0 -176 -2 -209
-15 -214 -8 -3 -15 -12 -15 -21 0 -12 14 -15 75 -15 59 0 75 3 75 15 0 8 -9
19 -20 25 -19 10 -20 19 -18 103 l3 92 103 3 102 3 0 -98 c0 -87 -2 -100 -20
-111 -38 -23 -21 -32 60 -32 64 0 80 3 80 15 0 8 -9 19 -20 25 -19 10 -20 21
-20 210 0 189 1 200 20 210 11 6 20 17 20 25 0 12 -17 15 -81 15 -70 0 -80 -2
-75 -16 3 -9 6 -18 6 -20 0 -2 7 -4 15 -4 12 0 15 -17 15 -90 l0 -90 -105 0
-105 0 0 85 c0 74 2 86 20 95 11 6 20 17 20 25 0 12 -16 15 -75 15 -61 0 -75
-3 -75 -15z"/>
<path d="M3690 625 c0 -8 9 -19 20 -25 19 -10 20 -21 20 -210 0 -189 -1 -200
-20 -210 -11 -6 -20 -17 -20 -25 0 -12 16 -15 80 -15 81 0 98 9 60 32 -19 12
-20 24 -20 220 0 171 2 208 14 208 12 0 26 20 26 36 0 2 -36 4 -80 4 -64 0
-80 -3 -80 -15z"/>
<path d="M746 492 c-82 -42 -97 -46 -177 -50 -92 -5 -187 16 -271 59 -45 23
-71 24 -88 4 -19 -23 -3 -51 55 -91 l55 -37 -1 -76 c-1 -42 -4 -100 -7 -130
l-7 -54 -60 -16 c-74 -21 -85 -27 -85 -50 0 -36 34 -54 92 -47 29 4 190 9 358
12 189 4 310 10 317 16 7 6 13 21 13 33 0 25 -21 36 -103 56 l-47 11 6 127 7
126 43 47 c45 48 54 74 32 96 -18 18 -35 13 -132 -36z m-44 -208 c8 -68 1
-126 -17 -151 -11 -15 -17 -15 -39 -5 -27 12 -27 13 -24 109 3 94 4 97 28 104
40 11 45 6 52 -57z m-193 40 c3 -3 7 -40 9 -82 4 -93 -6 -111 -63 -115 l-40
-2 -3 109 -3 109 47 -7 c26 -3 50 -9 53 -12z"/>
</g>
</svg>
